<svg width="180" height="180" viewBox="0 0 180 180" fill="none" xmlns="http://www.w3.org/2000/svg">
<path fill-rule="evenodd" clip-rule="evenodd" d="M27 61C27 56.5818 30.5817 53 35 53H145C149.418 53 153 56.5818 153 61V118.673C153 123.091 149.418 126.673 145 126.673L106 126.673V137.885L120 137.885C121.105 137.885 122 138.78 122 139.885V142C122 143.105 121.105 144 120 144H60C58.8954 144 58 143.105 58 142V139.885C58 138.78 58.8954 137.885 60 137.885L74 137.885V126.673L35 126.673C30.5817 126.673 27 123.091 27 118.673V61Z" fill="url(#paint0_linear_692_372)"/>
<g filter="url(#filter0_bi_692_372)">
<rect x="34" y="38" width="111" height="76" rx="6" fill="url(#paint1_linear_692_372)" fill-opacity="0.88"/>
</g>
<path d="M60.6076 87.0618C62.9747 87.0618 64.9115 85.2581 64.9115 83.0536C64.9115 80.849 62.9747 79.0453 60.6076 79.0453C58.2405 79.0453 56.3038 80.849 56.3038 83.0536C56.3038 85.2581 58.2405 87.0618 60.6076 87.0618ZM60.6076 91.07C55.8734 91.07 52 87.4626 52 83.0536C52 78.6445 55.8734 75.0371 60.6076 75.0371C65.3418 75.0371 69.2153 78.6445 69.2153 83.0536C69.2153 87.4626 65.3418 91.07 60.6076 91.07ZM90.7344 99.0865C93.1015 99.0865 95.0382 97.2828 95.0382 95.0783C95.0382 92.8737 93.1015 91.07 90.7344 91.07C88.3673 91.07 86.4306 92.8737 86.4306 95.0783C86.4306 97.2828 88.3673 99.0865 90.7344 99.0865ZM90.7344 103.095C86.0002 103.095 82.1267 99.4873 82.1267 95.0783C82.1267 90.6692 86.0002 87.0618 90.7344 87.0618C95.4686 87.0618 99.342 90.6692 99.342 95.0783C99.342 99.4873 95.4686 103.095 90.7344 103.095ZM112.253 69.0247C114.621 69.0247 116.557 67.221 116.557 65.0165C116.557 62.812 114.621 61.0083 112.253 61.0083C109.886 61.0083 107.95 62.812 107.95 65.0165C107.95 67.221 109.886 69.0247 112.253 69.0247ZM112.253 73.033C107.519 73.033 103.646 69.4256 103.646 65.0165C103.646 60.6074 107.519 57 112.253 57C116.988 57 120.861 60.6074 120.861 65.0165C120.861 69.4256 116.988 73.033 112.253 73.033Z" fill="white"/>
<path d="M95.786 91.0225L109.643 70.4525C110.273 69.4967 110.021 68.2085 109.055 67.5852C108.089 66.9618 106.787 67.2112 106.158 68.1669L92.3008 88.7369C91.6709 89.6927 91.9229 90.9809 92.8887 91.6043C93.8124 92.2692 95.1141 91.9783 95.786 91.0225ZM65.9728 87.1578L82.9789 94.3885C84.0287 94.8456 85.2884 94.3469 85.7503 93.3081C86.2122 92.2692 85.7083 91.0225 84.6585 90.5654L67.6524 83.3347C66.6027 82.8776 65.3429 83.3763 64.8811 84.4152C64.3772 85.4956 64.8811 86.7007 65.9728 87.1578Z" fill="white"/>
<defs>
<filter id="filter0_bi_692_372" x="29" y="33" width="121" height="86" filterUnits="userSpaceOnUse" color-interpolation-filters="sRGB">
<feFlood flood-opacity="0" result="BackgroundImageFix"/>
<feGaussianBlur in="BackgroundImageFix" stdDeviation="2.5"/>
<feComposite in2="SourceAlpha" operator="in" result="effect1_backgroundBlur_692_372"/>
<feBlend mode="normal" in="SourceGraphic" in2="effect1_backgroundBlur_692_372" result="shape"/>
<feColorMatrix in="SourceAlpha" type="matrix" values="0 0 0 0 0 0 0 0 0 0 0 0 0 0 0 0 0 0 127 0" result="hardAlpha"/>
<feOffset/>
<feGaussianBlur stdDeviation="7.5"/>
<feComposite in2="hardAlpha" operator="arithmetic" k2="-1" k3="1"/>
<feColorMatrix type="matrix" values="0 0 0 0 1 0 0 0 0 1 0 0 0 0 1 0 0 0 0.71 0"/>
<feBlend mode="normal" in2="shape" result="effect2_innerShadow_692_372"/>
</filter>
<linearGradient id="paint0_linear_692_372" x1="128" y1="141" x2="98.4113" y2="57.5634" gradientUnits="userSpaceOnUse">
<stop stop-color="#7761FE"/>
<stop offset="1" stop-color="#91A9FF"/>
</linearGradient>
<linearGradient id="paint1_linear_692_372" x1="129" y1="110.453" x2="97.4628" y2="3.79342" gradientUnits="userSpaceOnUse">
<stop stop-color="white" stop-opacity="0.47"/>
<stop offset="1" stop-color="#CAC3F5" stop-opacity="0.63"/>
</linearGradient>
</defs>
</svg>
